<?xml version="1.0" encoding="utf-8"?>
<svg id="master-artboard" viewBox="0 0 1400 980" xmlns="http://www.w3.org/2000/svg" width="1400px" height="980px" version="1.1" style="shape-rendering:geometricPrecision; text-rendering:geometricPrecision; image-rendering:optimizeQuality; fill-rule:evenodd; clip-rule:evenodd"><defs><style id="ee-google-fonts">@import url(https://fonts.googleapis.com/css?family=Open+Sans:300,300italic,400,400italic,600,600italic,700,700italic,800,800italic);</style><radialGradient id="gradient-0" gradientUnits="objectBoundingBox" cx="0.5" cy="0.5" r="0.5">
                <stop offset="0" style="stop-color: #ffffff"/>
                <stop offset="1" style="stop-color: #cccccc"/>
              </radialGradient></defs><rect id="ee-background" x="0" y="0" width="1400" height="980" style="fill: rgb(255, 255, 255); fill-opacity: 0; pointer-events: none;"/>
 
 <metadata id="CorelCorpID_0Corel-Layer"/>
<g transform="matrix(3.595274838068352, 0, 0, 3.595274838068352, -0.000008675565368321259, 235.6343052066641)"><g>
	<g>
		
		
		
		
		
		
		
		
		
		
		
		
		
		
		
		
		
		
		
		
		
		
		
		
	</g>
	<g>
		<path class="st1" d="M173,67c2.7,0.4,5.1,0.9,7.4,1.5c2.3,0.6,4.2,1.4,5.9,2.4c1.7,1,3,2.3,3.9,3.9c0.9,1.6,1.4,3.5,1.4,5.9    c0,2.1-0.5,4-1.4,5.8c-0.9,1.8-2.2,3.3-3.9,4.6c-1.7,1.3-3.7,2.3-6,3c-2.3,0.7-4.9,1.1-7.8,1.1c-2.1,0-4.1-0.3-6-0.8    c-1.9-0.5-3.7-1.3-5.3-2.4c-1.6-1-3-2.3-4.2-3.8c-1.2-1.5-2.1-3.2-2.7-5.1c-0.4-0.7-0.3-1.4,0.3-2.1c0.4-0.6,1-0.9,1.8-0.9h6.7    c0.8,0,1.4,0.3,1.9,0.9c1.1,1.6,2.3,2.7,3.8,3.2c1.5,0.6,2.9,0.9,4.3,0.9c2.2,0,4-0.3,5.3-0.9c1.4-0.6,2-1.5,2-2.7    c0-0.6-0.1-1.2-0.4-1.7c-0.3-0.5-0.7-0.9-1.4-1.3c-0.7-0.4-1.6-0.7-2.8-1c-1.2-0.3-2.7-0.6-4.5-0.9c-1.6-0.3-3.3-0.6-5.3-1.1    c-2-0.5-3.8-1.2-5.5-2.1c-1.7-0.9-3.1-2.2-4.3-3.7c-1.1-1.5-1.7-3.5-1.7-5.9c0-1.7,0.4-3.4,1.1-5.1c0.8-1.7,1.9-3.2,3.3-4.5    c1.5-1.3,3.2-2.4,5.4-3.2c2.1-0.8,4.6-1.2,7.3-1.2c4.4,0,8.1,1,11.2,2.9c3.1,1.9,5.3,4.5,6.7,7.8c0.2,0.8,0.1,1.4-0.4,2    c-0.1,0.3-0.4,0.6-0.8,0.8c-0.4,0.2-0.8,0.3-1.1,0.3h-6.8c-0.4,0-0.7-0.1-1.1-0.3c-0.3-0.2-0.7-0.4-1-0.8    c-0.5-0.8-1.4-1.4-2.7-1.8s-2.6-0.7-4.1-0.8c-1.3-0.1-2.3,0-3,0.2c-0.8,0.2-1.3,0.5-1.8,0.9c-0.4,0.4-0.7,0.8-0.8,1.3    c-0.1,0.5-0.2,0.9-0.2,1.3c0,1.1,0.5,1.8,1.4,2.3C168.4,65.9,170.2,66.4,173,67z" style="fill: rgb(62, 62, 62);"/>
		<path class="st1" d="M221.2,49.6c2.6,0,4.9,0.5,7,1.4c2.1,0.9,3.8,2.2,5.2,3.9c1.4,1.7,2.5,3.7,3.2,6c0.7,2.3,1.1,4.9,1.1,7.8v24    c0,1.5-0.8,2.2-2.4,2.2H229c-0.7,0-1.3-0.2-1.7-0.6c-0.4-0.4-0.7-0.9-0.7-1.6V68.3c0-0.8-0.1-1.6-0.4-2.5    c-0.3-0.9-0.7-1.8-1.3-2.6c-0.6-0.8-1.4-1.5-2.4-2c-1-0.5-2.3-0.8-3.8-0.8c-2.5,0-4.5,0.9-6.1,2.6c-1.6,1.7-2.4,4-2.4,6.9v22.6    c0,0.7-0.2,1.2-0.7,1.6c-0.5,0.4-1.1,0.6-1.8,0.6H201c-0.6,0-1.2-0.2-1.6-0.6c-0.4-0.4-0.7-0.9-0.7-1.6V30.5    c0-0.6,0.2-1.1,0.7-1.5c0.4-0.4,1-0.6,1.6-0.6h6.4c0.6,0,1.1,0.2,1.5,0.6c0.4,0.4,0.7,0.9,0.7,1.5v23.3c0.1,0.6,0.3,0.9,0.9,0.9    c0.5,0,0.9-0.1,1.1-0.5c1.1-1.5,2.5-2.6,4.4-3.4C217.8,50,219.6,49.6,221.2,49.6z" style="fill: rgb(62, 62, 62);"/>
		<path class="st1" d="M291.1,92.4c0,0.7-0.2,1.3-0.7,1.7c-0.5,0.4-1.1,0.7-1.8,0.7h-6.3c-0.7,0-1.3-0.2-1.8-0.7    c-0.5-0.4-0.7-1-0.7-1.7v-9.1c0-1.1,0-2.3,0-3.4c0-1.1,0-2.1,0-3c0-0.9,0-1.7,0-2.2c0-0.6,0-0.9,0-0.9c0-2.9-0.6-5.3-1.7-7.2    c-1.1-1.9-2.7-3.5-4.8-4.6c-1.5-0.8-3.1-1.3-4.7-1.5c-1.6-0.2-3.2,0-4.7,0.4c-1.5,0.4-2.9,1.2-4.2,2.1c-1.3,1-2.4,2.2-3.2,3.6    c-1.3,2.1-1.7,4.4-1.4,6.9c0.3,2.4,1.2,4.6,2.6,6.5c1.4,1.9,3.2,3.4,5.4,4.4c2.2,1,4.7,1.1,7.2,0.3c0.6-0.2,1.2-0.1,1.6,0.1    c0.4,0.3,0.8,0.7,1.1,1.2l2.6,7c0.2,0.5,0,0.9-0.7,1.1c-3.4,1.1-6.7,1.5-9.9,1.2c-3.2-0.3-6.1-1.2-8.7-2.6    c-2.6-1.4-4.9-3.2-6.8-5.5c-1.9-2.3-3.3-4.8-4.3-7.6c-0.9-2.8-1.3-5.7-1.1-8.8c0.2-3.1,1.1-6.2,2.7-9.3c1.4-2.7,3.3-4.9,5.7-6.8    c2.4-1.9,5-3.3,7.9-4.1c2.8-0.9,5.7-1.1,8.7-0.8c3,0.3,5.7,1.4,8.2,3.1c0.4,0.5,0.9,0.7,1.3,0.6c0.4-0.1,0.6-0.5,0.6-1.2    c0-0.6,0.2-1.2,0.7-1.7c0.5-0.5,1-0.8,1.7-0.8h6.8c0.7,0,1.3,0.3,1.8,0.8c0.5,0.5,0.7,1.1,0.7,1.7V92.4z" style="fill: rgb(62, 62, 62);"/>
		<path class="st1" d="M302.8,51.5c0-0.4,0.1-0.7,0.4-0.9c0.3-0.3,0.6-0.4,0.9-0.4h4.7c0.8,0,1.3,0.3,1.3,0.9l0.2,1.7    c0.1,0.4,0.1,0.9,0.1,1.3c0,0.4,0,0.6,0,0.7c0.1,0.6,0.4,0.7,0.8,0.3c0.4-0.6,0.9-1.2,1.6-1.9c0.7-0.7,1.5-1.3,2.4-1.9    c0.9-0.6,1.9-1.1,3-1.5c1.1-0.4,2.3-0.6,3.6-0.6c0.8,0,1.7,0.1,2.6,0.2c0.9,0.1,1.7,0.3,2.5,0.6c0.7,0.3,1.3,0.6,1.7,1    c0.4,0.4,0.5,0.9,0.2,1.4l-3.5,6.3c-0.4,0.6-1.1,0.8-2.3,0.4c-1.6-0.5-3-0.5-4.2-0.1c-1.2,0.4-2.3,1.1-3.1,2.1    c-0.8,0.9-1.4,2.1-1.8,3.3c-0.4,1.3-0.6,2.5-0.6,3.7v25.4c0,0.9-0.6,1.3-1.8,1.3h-7.5c-0.3,0-0.6-0.1-0.9-0.4    c-0.3-0.3-0.4-0.6-0.4-0.9V51.5z" style="fill: rgb(62, 62, 62);"/>
		<path class="st1" d="M354.6,49.9c3,0,5.9,0.6,8.7,1.7c2.7,1.1,5.1,2.7,7.2,4.8c2,2.1,3.6,4.8,4.7,7.9c1.1,3.2,1.6,6.8,1.5,11    c0,0.6-0.1,1.1-0.3,1.3c-0.2,0.3-0.6,0.4-1.2,0.4c-5.4,0.1-10.4,0.1-14.8,0.1h-17c-0.1,0-0.1,0-0.2,0.1v0.1    c0.1,0.3,0.3,0.9,0.7,1.8c0.4,0.9,1.1,1.8,1.9,2.8c0.9,1,2.1,1.9,3.5,2.7c1.5,0.9,3.3,1.4,5.5,1.7c1.9,0.3,3.6,0.3,5.1,0    c1.5-0.3,2.9-0.6,4-1.1c1.2-0.5,2.2-1,3-1.7c0.9-0.7,1.6-1.3,2.1-1.9c0.3-0.3,0.5-0.3,0.9-0.1l5.1,4.4c0.3,0.3,0.4,0.5,0.4,0.7    c0,0.3-0.1,0.4-0.2,0.6c-0.5,0.6-1.3,1.4-2.3,2.4c-1,1-2.4,2-4.1,2.9c-1.7,0.9-3.7,1.8-6,2.4c-2.3,0.7-5,1-8.1,0.9    c-3-0.1-5.9-0.7-8.7-1.9c-2.7-1.2-5.1-2.9-7.2-4.9c-2-2.1-3.6-4.5-4.8-7.2c-1.2-2.7-1.8-5.7-1.8-8.9c0-3.2,0.6-6.1,1.8-8.9    c1.2-2.8,2.8-5.2,4.8-7.2c2-2.1,4.4-3.7,7.1-4.9C348.6,50.5,351.5,49.9,354.6,49.9z M366.4,67.8c0.1-0.1,0.1-0.2,0.1-0.3    c-0.3-0.8-0.7-1.6-1.3-2.6c-0.5-1-1.3-1.9-2.2-2.7c-0.9-0.9-2.1-1.6-3.4-2.2c-1.4-0.6-3-0.9-4.9-0.9c-2,0-3.6,0.4-5,1.1    c-1.4,0.7-2.5,1.6-3.3,2.5c-0.9,0.9-1.5,1.9-1.9,2.8c-0.4,0.9-0.7,1.6-0.8,2v0.3c0.1,0.1,0.1,0.1,0.2,0.1h22.2    C366.3,67.9,366.4,67.8,366.4,67.8z" style="fill: rgb(62, 62, 62);"/>
	</g>
	<g>
		<path class="st0" d="M54.2,49.9c2.5,0,4.8,0.5,6.8,1.4c2,0.9,3.8,2.2,5.2,3.9c1.5,1.7,2.6,3.7,3.4,6c0.8,2.3,1.2,4.8,1.2,7.6v23.8    c0,0.6-0.2,1.2-0.7,1.6c-0.4,0.4-1,0.7-1.7,0.7h-6.3c-0.7,0-1.3-0.2-1.7-0.7c-0.4-0.4-0.7-1-0.7-1.6V68.3c0-0.8-0.1-1.6-0.4-2.5    c-0.3-0.9-0.7-1.8-1.3-2.5c-0.6-0.8-1.4-1.4-2.4-1.9c-1-0.5-2.3-0.8-3.9-0.8c-2.4,0-4.5,0.8-6.2,2.5c-1.7,1.6-2.6,4-2.6,7.2v22.3    v0.3c0,0.6-0.2,1-0.6,1.4c-0.4,0.4-0.9,0.6-1.5,0.6h-6.6c-0.6,0-1.1-0.2-1.5-0.7c-0.4-0.4-0.6-1-0.6-1.6V68.3    c0-0.8-0.1-1.6-0.4-2.5c-0.3-0.9-0.7-1.8-1.3-2.6c-0.6-0.8-1.4-1.5-2.5-2c-1-0.5-2.4-0.8-3.9-0.8c-0.9,0-1.8,0.2-2.7,0.7    c-0.9,0.5-1.6,1.1-2.3,1.9c-0.7,0.8-1.2,1.8-1.7,3c-0.4,1.2-0.6,2.4-0.6,3.8v22.5c0,0.6-0.2,1.2-0.7,1.6c-0.4,0.4-0.9,0.7-1.5,0.7    H8.3c-0.6,0-1.2-0.2-1.6-0.7c-0.4-0.4-0.7-1-0.7-1.6V53.2c0-0.6,0.2-1.1,0.7-1.5c0.4-0.4,1-0.6,1.6-0.6h5.9c0.7,0,1.2,0.2,1.7,0.6    c0.4,0.4,0.6,0.9,0.6,1.5v0.6c0,0.3,0.1,0.5,0.2,0.6c0.2,0.2,0.3,0.2,0.4,0.2c0.4,0.1,0.7,0.1,0.8,0c0.1-0.1,0.2-0.3,0.3-0.5    c2.5-3,5.4-4.5,8.5-4.5c2.9,0,5.5,0.6,7.7,1.9c2.2,1.3,4.1,3,5.4,5c0.6,1,1.3,1,2,0.1v-0.1c1.5-1.7,2.8-2.9,3.9-3.6    c1.3-1.1,2.7-1.8,4.2-2.3S53,49.9,54.2,49.9z" style="fill: rgb(138, 186, 139);"/>
		<path class="st0" d="M121.9,100.4c-0.1,2.7-0.6,5.2-1.7,7.7c-1,2.5-2.5,4.7-4.5,6.6c-2,1.9-4.4,3.5-7.2,4.7    c-2.9,1.2-6.2,1.8-9.9,1.8c-4.7,0-8.7-1.1-11.9-3.3c-3.2-2.2-5.7-4.9-7.5-8.3c-0.3-0.4-0.3-0.7,0.2-0.9l0.9-0.4    c0.5-0.1,1.3-0.4,2.3-0.7c1-0.3,2.4-0.8,4.3-1.5c0.3-0.1,0.6-0.2,0.8-0.2c0.2,0,0.4,0.2,0.6,0.5c1,1.3,2.4,2.4,4,3.4    c1.7,1,3.9,1.5,6.8,1.5c2.2,0,4.1-0.4,5.6-1.1c1.5-0.8,2.7-1.7,3.7-2.9c0.9-1.2,1.6-2.6,2-4.1c0.4-1.5,0.6-3,0.6-4.5v-8.3    c-0.1-0.4-0.4-0.6-0.8-0.6c-0.4,0-0.7,0.2-1,0.6c-1.1,1.5-2.6,2.5-4.5,3.2c-1.9,0.7-3.6,1-5.3,1c-2.5,0-4.8-0.5-6.8-1.4    c-2-0.9-3.7-2.2-5.2-3.9c-1.4-1.7-2.5-3.7-3.3-6.1c-0.8-2.4-1.1-5-1.1-7.8V52.5c0-0.7,0.2-1.3,0.7-1.8c0.5-0.5,1-0.8,1.7-0.8h6.4    c0.6,0,1.1,0.3,1.6,0.8c0.5,0.5,0.7,1.1,0.7,1.8v23.6c0,0.8,0.1,1.6,0.4,2.5c0.3,0.9,0.7,1.8,1.3,2.6c0.6,0.8,1.4,1.5,2.4,2.1    c1,0.6,2.3,0.9,3.9,0.9c2.5,0,4.5-0.9,6.1-2.7c1.6-1.8,2.4-4.1,2.4-6.9V52.5c0-0.7,0.2-1.3,0.6-1.8c0.4-0.5,1-0.8,1.7-0.8h6.7    c0.7,0,1.3,0.3,1.7,0.8c0.4,0.5,0.7,1.1,0.7,1.8V100.4z" style="fill: rgb(138, 186, 139);"/>
	</g>
	<g>
		<path d="M 171.5 26.600000381469727 L 152.6999969482422 26.5 L 159.6999969482422 7.599999904632568 L 148.3000030517578 7.5 L 141.3000030517578 26.399999618530273 L 122.5 26.299999237060547 L 118.69999694824219 36.099998474121094 L 137.60000610351562 36.20000076293945 L 130.60000610351562 55.099998474121094 L 142 55.20000076293945 L 149 36.29999923706055 L 167.8000030517578 36.400001525878906 Z" class="st0" style="fill: rgb(138, 186, 139);"/>
		<path d="M 141.3000030517578 26.399999618530273 L 137.60000610351562 36.20000076293945 L 133.60000610351562 36.20000076293945 L 140.5 26.399999618530273 Z" class="st2" style="fill: rgb(59, 160, 71);"/>
		<path d="M 149 36.29999923706055 L 137.60000610351562 36.20000076293945 L 147.6999969482422 39.599998474121094 Z" class="st2" style="fill: rgb(59, 160, 71);"/>
	</g>
	<path d="M 171.5 26.600000381469727 L 152.6999969482422 26.5 L 159.6999969482422 7.599999904632568 L 148.3000030517578 7.5 L 141.3000030517578 26.399999618530273 L 137.60000610351562 36.20000076293945 L 149 36.29999923706055 L 167.8000030517578 36.400001525878906 Z" class="st1" style="fill: rgb(62, 62, 62);"/>
<path d="M 209.1164093017578 137.88999938964844 C 209.1164093017578 138.9166717529297 208.74307250976562 139.72000122070312 207.99639892578125 140.3000030517578 C 207.24974060058594 140.8733367919922 206.2364044189453 141.16000366210938 204.95640563964844 141.16000366210938 C 203.56973266601562 141.16000366210938 202.50306701660156 140.97999572753906 201.75640869140625 140.6199951171875 L 201.75640869140625 139.30999755859375 C 202.2364044189453 139.51666259765625 202.75973510742188 139.67666625976562 203.32640075683594 139.7899932861328 C 203.89306640625 139.91000366210938 204.45306396484375 139.97000122070312 205.00640869140625 139.97000122070312 C 205.91307067871094 139.97000122070312 206.59640502929688 139.79666137695312 207.056396484375 139.4499969482422 C 207.50973510742188 139.11000061035156 207.7364044189453 138.6300048828125 207.7364044189453 138.00999450683594 C 207.7364044189453 137.61000061035156 207.65640258789062 137.27999877929688 207.49639892578125 137.02000427246094 C 207.33639526367188 136.75999450683594 207.0630645751953 136.52000427246094 206.67640686035156 136.3000030517578 C 206.29640197753906 136.0800018310547 205.71640014648438 135.8333282470703 204.9364013671875 135.55999755859375 C 203.8497314453125 135.1666717529297 203.0730743408203 134.70333862304688 202.6063995361328 134.1699981689453 C 202.13973999023438 133.6366729736328 201.90640258789062 132.94332885742188 201.90640258789062 132.08999633789062 C 201.90640258789062 131.18333435058594 202.24639892578125 130.4633331298828 202.92640686035156 129.92999267578125 C 203.5997314453125 129.39666748046875 204.49639892578125 129.1300048828125 205.6164093017578 129.1300048828125 C 206.77639770507812 129.1300048828125 207.8430633544922 129.3433380126953 208.81640625 129.77000427246094 L 208.3964080810547 130.9600067138672 C 207.4297332763672 130.55332946777344 206.48973083496094 130.35000610351562 205.57640075683594 130.35000610351562 C 204.8563995361328 130.35000610351562 204.29640197753906 130.50332641601562 203.8964080810547 130.80999755859375 C 203.48973083496094 131.1233367919922 203.28640747070312 131.55332946777344 203.28640747070312 132.10000610351562 C 203.28640747070312 132.5066680908203 203.3597412109375 132.83999633789062 203.50640869140625 133.10000610351562 C 203.653076171875 133.36000061035156 203.90640258789062 133.59666442871094 204.2664031982422 133.80999755859375 C 204.61973571777344 134.02333068847656 205.16307067871094 134.26333618164062 205.8964080810547 134.52999877929688 C 207.12306213378906 134.9633331298828 207.96640014648438 135.42999267578125 208.42640686035156 135.92999267578125 C 208.8863983154297 136.43666076660156 209.1164093017578 137.08999633789062 209.1164093017578 137.88999938964844 ZM 220.84619140625 135.0399932861328 C 220.84619140625 136.96665954589844 220.32286071777344 138.44332885742188 219.2761993408203 139.47000122070312 C 218.2228546142578 140.49000549316406 216.71286010742188 141 214.74620056152344 141 L 211.50619506835938 141 L 211.50619506835938 129.3000030517578 L 215.08619689941406 129.3000030517578 C 216.90618896484375 129.3000030517578 218.32286071777344 129.80332946777344 219.33619689941406 130.80999755859375 C 220.34286499023438 131.82333374023438 220.84619140625 133.23333740234375 220.84619140625 135.0399932861328 M 219.40618896484375 135.08999633789062 C 219.40618896484375 133.56333923339844 219.02285766601562 132.413330078125 218.25619506835938 131.63999938964844 C 217.48953247070312 130.86666870117188 216.3528594970703 130.47999572753906 214.84619140625 130.47999572753906 L 212.86619567871094 130.47999572753906 L 212.86619567871094 139.82000732421875 L 214.5261993408203 139.82000732421875 C 216.1461944580078 139.82000732421875 217.36285400390625 139.42333984375 218.1761932373047 138.6300048828125 C 218.99620056152344 137.8300018310547 219.40618896484375 136.64999389648438 219.40618896484375 135.08999633789062 ZM 231.8972625732422 141 L 230.29727172851562 141 L 226.0272674560547 135.3300018310547 L 224.80726623535156 136.41000366210938 L 224.80726623535156 141 L 223.447265625 141 L 223.447265625 129.3000030517578 L 224.80726623535156 129.3000030517578 L 224.80726623535156 135.10000610351562 L 230.10726928710938 129.3000030517578 L 231.71726989746094 129.3000030517578 L 227.0172576904297 134.3800048828125 L 231.8972625732422 141 ZM 241.50576782226562 133.25999450683594 L 239.27577209472656 133.25999450683594 L 239.27577209472656 141 L 237.94577026367188 141 L 237.94577026367188 133.25999450683594 L 236.37576293945312 133.25999450683594 L 236.37576293945312 132.66000366210938 L 237.94577026367188 132.17999267578125 L 237.94577026367188 131.69000244140625 C 237.94577026367188 129.5366668701172 238.88909912109375 128.4600067138672 240.77577209472656 128.4600067138672 C 241.2357635498047 128.4600067138672 241.7790985107422 128.55332946777344 242.40576171875 128.74000549316406 L 242.05577087402344 129.8000030517578 C 241.54910278320312 129.63999938964844 241.1124267578125 129.55999755859375 240.7457733154297 129.55999755859375 C 240.2457733154297 129.55999755859375 239.87576293945312 129.72666931152344 239.63577270507812 130.05999755859375 C 239.39576721191406 130.39334106445312 239.27577209472656 130.92666625976562 239.27577209472656 131.66000366210938 L 239.27577209472656 132.22999572753906 L 241.50576782226562 132.22999572753906 L 241.50576782226562 133.25999450683594 ZM 250.67640686035156 136.61000061035156 C 250.67640686035156 138.0366668701172 250.31640625 139.15333557128906 249.59640502929688 139.9600067138672 C 248.87640380859375 140.75999450683594 247.87974548339844 141.16000366210938 246.60641479492188 141.16000366210938 C 245.826416015625 141.16000366210938 245.12974548339844 140.97666931152344 244.51641845703125 140.61000061035156 C 243.9097442626953 140.2433319091797 243.44308471679688 139.7133331298828 243.1164093017578 139.02000427246094 C 242.7830810546875 138.3333282470703 242.6164093017578 137.52999877929688 242.6164093017578 136.61000061035156 C 242.6164093017578 135.17666625976562 242.97308349609375 134.06333923339844 243.68641662597656 133.27000427246094 C 244.4064178466797 132.47000122070312 245.39974975585938 132.07000732421875 246.66641235351562 132.07000732421875 C 247.89308166503906 132.07000732421875 248.8664093017578 132.47666931152344 249.58641052246094 133.2899932861328 C 250.31307983398438 134.11000061035156 250.67640686035156 135.21665954589844 250.67640686035156 136.61000061035156 M 243.9964141845703 136.61000061035156 C 243.9964141845703 137.72999572753906 244.21974182128906 138.5833282470703 244.66641235351562 139.1699981689453 C 245.1130828857422 139.7566680908203 245.7730712890625 140.0500030517578 246.6464080810547 140.0500030517578 C 247.51307678222656 140.0500030517578 248.17308044433594 139.7566680908203 248.62640380859375 139.1699981689453 C 249.0730743408203 138.58999633789062 249.29641723632812 137.73666381835938 249.29641723632812 136.61000061035156 C 249.29641723632812 135.49000549316406 249.0730743408203 134.64334106445312 248.62640380859375 134.07000732421875 C 248.17308044433594 133.49000549316406 247.50640869140625 133.1999969482422 246.62640380859375 133.1999969482422 C 245.75975036621094 133.1999969482422 245.1030731201172 133.48333740234375 244.6564178466797 134.0500030517578 C 244.21641540527344 134.6233367919922 243.9964141845703 135.47666931152344 243.9964141845703 136.61000061035156 ZM 256.9999694824219 132.07000732421875 C 257.38665771484375 132.07000732421875 257.73663330078125 132.10333251953125 258.04998779296875 132.1699981689453 L 257.8599853515625 133.39999389648438 C 257.4999694824219 133.32000732421875 257.17999267578125 133.27999877929688 256.8999938964844 133.27999877929688 C 256.1933288574219 133.27999877929688 255.58665466308594 133.56666564941406 255.07998657226562 134.13999938964844 C 254.57998657226562 134.72000122070312 254.32998657226562 135.43666076660156 254.32998657226562 136.2899932861328 L 254.32998657226562 141 L 252.99998474121094 141 L 252.99998474121094 132.22999572753906 L 254.08998107910156 132.22999572753906 L 254.24998474121094 133.85000610351562 L 254.3099822998047 133.85000610351562 C 254.6366424560547 133.28334045410156 255.0299835205078 132.8433380126953 255.48997497558594 132.52999877929688 C 255.94998168945312 132.22332763671875 256.45330810546875 132.07000732421875 256.9999694824219 132.07000732421875 ZM 267.64129638671875 141.16000366210938 C 266.3479919433594 141.16000366210938 265.32464599609375 140.76666259765625 264.5713195800781 139.97999572753906 C 263.82464599609375 139.18666076660156 263.4513244628906 138.08999633789062 263.4513244628906 136.69000244140625 C 263.4513244628906 135.27667236328125 263.7979736328125 134.15333557128906 264.4913024902344 133.32000732421875 C 265.1913146972656 132.48666381835938 266.12799072265625 132.07000732421875 267.3013000488281 132.07000732421875 C 268.40130615234375 132.07000732421875 269.27130126953125 132.42999267578125 269.91131591796875 133.14999389648438 C 270.5513000488281 133.8766632080078 270.8713073730469 134.8300018310547 270.8713073730469 136.00999450683594 L 270.8713073730469 136.85000610351562 L 264.831298828125 136.85000610351562 C 264.85797119140625 137.88333129882812 265.11798095703125 138.6666717529297 265.6112976074219 139.1999969482422 C 266.1046447753906 139.73333740234375 266.7979736328125 140 267.6913146972656 140 C 268.6379699707031 140 269.5713195800781 139.80332946777344 270.4913024902344 139.41000366210938 L 270.4913024902344 140.58999633789062 C 270.024658203125 140.79666137695312 269.581298828125 140.94332885742188 269.16131591796875 141.02999877929688 C 268.7413024902344 141.11666870117188 268.2346496582031 141.16000366210938 267.64129638671875 141.16000366210938 M 267.28131103515625 133.17999267578125 C 266.581298828125 133.17999267578125 266.02130126953125 133.41000366210938 265.601318359375 133.8699951171875 C 265.1813049316406 134.3300018310547 264.93463134765625 134.9633331298828 264.8612976074219 135.77000427246094 L 269.4413146972656 135.77000427246094 C 269.4413146972656 134.93666076660156 269.254638671875 134.29666137695312 268.8813171386719 133.85000610351562 C 268.5079650878906 133.40333557128906 267.9746398925781 133.17999267578125 267.28131103515625 133.17999267578125 ZM 278.5210266113281 141 L 278.26104736328125 139.75 L 278.1910400390625 139.75 C 277.7576904296875 140.30332946777344 277.3243713378906 140.67666625976562 276.89105224609375 140.8699951171875 C 276.4510498046875 141.06333923339844 275.90771484375 141.16000366210938 275.26104736328125 141.16000366210938 C 274.3876953125 141.16000366210938 273.7043762207031 140.93666076660156 273.2110290527344 140.49000549316406 C 272.71771240234375 140.0433349609375 272.4710388183594 139.4066619873047 272.4710388183594 138.5800018310547 C 272.4710388183594 136.80667114257812 273.8876953125 135.8766632080078 276.7210388183594 135.7899932861328 L 278.2110290527344 135.74000549316406 L 278.2110290527344 135.1999969482422 C 278.2110290527344 134.51333618164062 278.0643615722656 134.00332641601562 277.7710266113281 133.6699981689453 C 277.4710388183594 133.3433380126953 276.9977111816406 133.17999267578125 276.3510437011719 133.17999267578125 C 275.6177062988281 133.17999267578125 274.7877197265625 133.40333557128906 273.8610534667969 133.85000610351562 L 273.4610290527344 132.83999633789062 C 273.8876953125 132.60665893554688 274.3610534667969 132.42333984375 274.88104248046875 132.2899932861328 C 275.3943786621094 132.1566619873047 275.9110412597656 132.08999633789062 276.4310302734375 132.08999633789062 C 277.4710388183594 132.08999633789062 278.244384765625 132.32000732421875 278.75103759765625 132.77999877929688 C 279.2576904296875 133.24667358398438 279.51104736328125 133.99000549316406 279.51104736328125 135.00999450683594 L 279.51104736328125 141 L 278.5210266113281 141 M 275.5210266113281 140.05999755859375 C 276.34771728515625 140.05999755859375 276.9977111816406 139.8333282470703 277.4710388183594 139.3800048828125 C 277.9443664550781 138.92666625976562 278.1810302734375 138.2933349609375 278.1810302734375 137.47999572753906 L 278.1810302734375 136.69000244140625 L 276.8510437011719 136.74000549316406 C 275.7976989746094 136.77999877929688 275.03436279296875 136.94332885742188 274.56103515625 137.22999572753906 C 274.0943603515625 137.52333068847656 273.8610534667969 137.97666931152344 273.8610534667969 138.58999633789062 C 273.8610534667969 139.07000732421875 274.0076904296875 139.43666076660156 274.301025390625 139.69000244140625 C 274.5943603515625 139.93666076660156 275.00103759765625 140.05999755859375 275.5210266113281 140.05999755859375 ZM 287.90081787109375 138.61000061035156 C 287.90081787109375 139.42333984375 287.5941467285156 140.05332946777344 286.9808044433594 140.5 C 286.3741455078125 140.94000244140625 285.52081298828125 141.16000366210938 284.4208068847656 141.16000366210938 C 283.26080322265625 141.16000366210938 282.3541564941406 140.97666931152344 281.7008056640625 140.61000061035156 L 281.7008056640625 139.3800048828125 C 282.1208190917969 139.5933380126953 282.57415771484375 139.75999450683594 283.0608215332031 139.8800048828125 C 283.5408020019531 140 284.0074768066406 140.05999755859375 284.4608154296875 140.05999755859375 C 285.1541442871094 140.05999755859375 285.6874694824219 139.9499969482422 286.0608215332031 139.72999572753906 C 286.43414306640625 139.50999450683594 286.6208190917969 139.17333984375 286.6208190917969 138.72000122070312 C 286.6208190917969 138.3800048828125 286.4708251953125 138.086669921875 286.1708068847656 137.83999633789062 C 285.8774719238281 137.60000610351562 285.3008117675781 137.31333923339844 284.4407958984375 136.97999572753906 C 283.6208190917969 136.67999267578125 283.0408020019531 136.4166717529297 282.7008056640625 136.19000244140625 C 282.3541564941406 135.9633331298828 282.09747314453125 135.70333862304688 281.9308166503906 135.41000366210938 C 281.7641296386719 135.1233367919922 281.6808166503906 134.77999877929688 281.6808166503906 134.3800048828125 C 281.6808166503906 133.6666717529297 281.9708251953125 133.10333251953125 282.5508117675781 132.69000244140625 C 283.13079833984375 132.27667236328125 283.927490234375 132.07000732421875 284.9407958984375 132.07000732421875 C 285.8874816894531 132.07000732421875 286.8108215332031 132.26333618164062 287.7108154296875 132.64999389648438 L 287.2408142089844 133.72999572753906 C 286.3608093261719 133.3633270263672 285.56414794921875 133.17999267578125 284.8507995605469 133.17999267578125 C 284.21746826171875 133.17999267578125 283.7408142089844 133.27999877929688 283.4208068847656 133.47999572753906 C 283.1007995605469 133.67333984375 282.9407958984375 133.94332885742188 282.9407958984375 134.2899932861328 C 282.9407958984375 134.52999877929688 283.0008239746094 134.72999572753906 283.1208190917969 134.88999938964844 C 283.2408142089844 135.05667114257812 283.43414306640625 135.21665954589844 283.7008056640625 135.3699951171875 C 283.96746826171875 135.51666259765625 284.4808044433594 135.72999572753906 285.2408142089844 136.00999450683594 C 286.28082275390625 136.38999938964844 286.984130859375 136.77333068847656 287.3507995605469 137.16000366210938 C 287.71746826171875 137.5399932861328 287.90081787109375 138.02333068847656 287.90081787109375 138.61000061035156 ZM 288.6648864746094 132.22999572753906 L 290.08489990234375 132.22999572753906 L 292.0048828125 137.22999572753906 C 292.4248962402344 138.3699951171875 292.688232421875 139.19332885742188 292.7948913574219 139.6999969482422 L 292.8548889160156 139.6999969482422 C 292.92156982421875 139.43333435058594 293.0682373046875 138.97000122070312 293.2948913574219 138.30999755859375 C 293.514892578125 137.64999389648438 294.23822021484375 135.6233367919922 295.46490478515625 132.22999572753906 L 296.8848876953125 132.22999572753906 L 293.1148986816406 142.22000122070312 C 292.7415771484375 143.2066650390625 292.3082275390625 143.9066619873047 291.8149108886719 144.32000732421875 C 291.3149108886719 144.73333740234375 290.7015686035156 144.94000244140625 289.9748840332031 144.94000244140625 C 289.5682373046875 144.94000244140625 289.1682434082031 144.89334106445312 288.77490234375 144.8000030517578 L 288.77490234375 143.74000549316406 C 289.0682373046875 143.8000030517578 289.3948974609375 143.8300018310547 289.7548828125 143.8300018310547 C 290.6682434082031 143.8300018310547 291.3215637207031 143.32000732421875 291.71490478515625 142.3000030517578 L 292.19488525390625 141.0500030517578 L 288.6648864746094 132.22999572753906 ZM 308.5338439941406 139.82000732421875 L 308.4638366699219 139.82000732421875 C 307.8504943847656 140.7133331298828 306.9305114746094 141.16000366210938 305.7038269042969 141.16000366210938 C 304.5571594238281 141.16000366210938 303.66717529296875 140.76666259765625 303.0338439941406 139.97999572753906 C 302.3938293457031 139.1999969482422 302.0738525390625 138.086669921875 302.0738525390625 136.63999938964844 C 302.0738525390625 135.19332885742188 302.3938293457031 134.07000732421875 303.0338439941406 133.27000427246094 C 303.673828125 132.47000122070312 304.5638427734375 132.07000732421875 305.7038269042969 132.07000732421875 C 306.8971862792969 132.07000732421875 307.8105163574219 132.50332641601562 308.44384765625 133.3699951171875 L 308.5438537597656 133.3699951171875 L 308.49383544921875 132.72999572753906 L 308.4638366699219 132.1199951171875 L 308.4638366699219 128.5500030517578 L 309.7838439941406 128.5500030517578 L 309.7838439941406 141 L 308.7038269042969 141 L 308.5338439941406 139.82000732421875 M 305.87384033203125 140.0500030517578 C 306.780517578125 140.0500030517578 307.4371643066406 139.80332946777344 307.8438415527344 139.30999755859375 C 308.2571716308594 138.81666564941406 308.4638366699219 138.02000427246094 308.4638366699219 136.9199981689453 L 308.4638366699219 136.63999938964844 C 308.4638366699219 135.39334106445312 308.2571716308594 134.5066680908203 307.8438415527344 133.97999572753906 C 307.4305114746094 133.44667053222656 306.7705078125 133.17999267578125 305.86383056640625 133.17999267578125 C 305.0838317871094 133.17999267578125 304.4871826171875 133.48333740234375 304.0738525390625 134.08999633789062 C 303.6604919433594 134.69667053222656 303.4538269042969 135.5500030517578 303.4538269042969 136.64999389648438 C 303.4538269042969 137.77667236328125 303.65716552734375 138.6233367919922 304.0638427734375 139.19000244140625 C 304.4771728515625 139.76333618164062 305.08050537109375 140.0500030517578 305.87384033203125 140.0500030517578 ZM 316.3013610839844 141.16000366210938 C 315.008056640625 141.16000366210938 313.9847106933594 140.76666259765625 313.23138427734375 139.97999572753906 C 312.4847106933594 139.18666076660156 312.11138916015625 138.08999633789062 312.11138916015625 136.69000244140625 C 312.11138916015625 135.27667236328125 312.4580383300781 134.15333557128906 313.1513671875 133.32000732421875 C 313.85137939453125 132.48666381835938 314.7880554199219 132.07000732421875 315.96136474609375 132.07000732421875 C 317.0613708496094 132.07000732421875 317.9313659667969 132.42999267578125 318.5713806152344 133.14999389648438 C 319.21136474609375 133.8766632080078 319.5313720703125 134.8300018310547 319.5313720703125 136.00999450683594 L 319.5313720703125 136.85000610351562 L 313.4913635253906 136.85000610351562 C 313.5180358886719 137.88333129882812 313.7780456542969 138.6666717529297 314.2713623046875 139.1999969482422 C 314.76470947265625 139.73333740234375 315.4580383300781 140 316.35137939453125 140 C 317.29803466796875 140 318.23138427734375 139.80332946777344 319.1513671875 139.41000366210938 L 319.1513671875 140.58999633789062 C 318.6847229003906 140.79666137695312 318.2413635253906 140.94332885742188 317.8213806152344 141.02999877929688 C 317.4013671875 141.11666870117188 316.89471435546875 141.16000366210938 316.3013610839844 141.16000366210938 M 315.9413757324219 133.17999267578125 C 315.2413635253906 133.17999267578125 314.6813659667969 133.41000366210938 314.2613830566406 133.8699951171875 C 313.84136962890625 134.3300018310547 313.5946960449219 134.9633331298828 313.5213623046875 135.77000427246094 L 318.10137939453125 135.77000427246094 C 318.10137939453125 134.93666076660156 317.9147033691406 134.29666137695312 317.5413818359375 133.85000610351562 C 317.16802978515625 133.40333557128906 316.63470458984375 133.17999267578125 315.9413757324219 133.17999267578125 ZM 323.7110900878906 141 L 320.381103515625 132.22999572753906 L 321.8011169433594 132.22999572753906 L 323.69110107421875 137.42999267578125 C 324.1177673339844 138.64999389648438 324.37109375 139.44000244140625 324.45111083984375 139.8000030517578 L 324.5111083984375 139.8000030517578 C 324.57110595703125 139.52000427246094 324.7577819824219 138.93333435058594 325.07110595703125 138.0399932861328 C 325.3777770996094 137.15333557128906 326.0777587890625 135.21665954589844 327.1711120605469 132.22999572753906 L 328.5910949707031 132.22999572753906 L 325.2611083984375 141 L 323.7110900878906 141 ZM 333.69708251953125 141.16000366210938 C 332.4037780761719 141.16000366210938 331.38043212890625 140.76666259765625 330.6271057128906 139.97999572753906 C 329.88043212890625 139.18666076660156 329.5071105957031 138.08999633789062 329.5071105957031 136.69000244140625 C 329.5071105957031 135.27667236328125 329.853759765625 134.15333557128906 330.5470886230469 133.32000732421875 C 331.2471008300781 132.48666381835938 332.18377685546875 132.07000732421875 333.3570861816406 132.07000732421875 C 334.45709228515625 132.07000732421875 335.32708740234375 132.42999267578125 335.96710205078125 133.14999389648438 C 336.6070861816406 133.8766632080078 336.9270935058594 134.8300018310547 336.9270935058594 136.00999450683594 L 336.9270935058594 136.85000610351562 L 330.8870849609375 136.85000610351562 C 330.91375732421875 137.88333129882812 331.17376708984375 138.6666717529297 331.6670837402344 139.1999969482422 C 332.1604309082031 139.73333740234375 332.853759765625 140 333.7471008300781 140 C 334.6937561035156 140 335.6271057128906 139.80332946777344 336.5470886230469 139.41000366210938 L 336.5470886230469 140.58999633789062 C 336.0804443359375 140.79666137695312 335.6370849609375 140.94332885742188 335.21710205078125 141.02999877929688 C 334.7970886230469 141.11666870117188 334.2904357910156 141.16000366210938 333.69708251953125 141.16000366210938 M 333.33709716796875 133.17999267578125 C 332.6370849609375 133.17999267578125 332.07708740234375 133.41000366210938 331.6571044921875 133.8699951171875 C 331.2370910644531 134.3300018310547 330.99041748046875 134.9633331298828 330.9170837402344 135.77000427246094 L 335.4971008300781 135.77000427246094 C 335.4971008300781 134.93666076660156 335.3104248046875 134.29666137695312 334.9371032714844 133.85000610351562 C 334.5637512207031 133.40333557128906 334.0304260253906 133.17999267578125 333.33709716796875 133.17999267578125 ZM 340.516845703125 141 L 339.1868591308594 141 L 339.1868591308594 128.5500030517578 L 340.516845703125 128.5500030517578 L 340.516845703125 141 ZM 350.89984130859375 136.61000061035156 C 350.89984130859375 138.0366668701172 350.5398254394531 139.15333557128906 349.81982421875 139.9600067138672 C 349.0998229980469 140.75999450683594 348.1031494140625 141.16000366210938 346.829833984375 141.16000366210938 C 346.0498352050781 141.16000366210938 345.3531494140625 140.97666931152344 344.7398376464844 140.61000061035156 C 344.1331787109375 140.2433319091797 343.66650390625 139.7133331298828 343.33984375 139.02000427246094 C 343.0065002441406 138.3333282470703 342.83984375 137.52999877929688 342.83984375 136.61000061035156 C 342.83984375 135.17666625976562 343.1965026855469 134.06333923339844 343.9098205566406 133.27000427246094 C 344.62982177734375 132.47000122070312 345.6231689453125 132.07000732421875 346.88983154296875 132.07000732421875 C 348.1164855957031 132.07000732421875 349.08984375 132.47666931152344 349.8098449707031 133.2899932861328 C 350.5364990234375 134.11000061035156 350.89984130859375 135.21665954589844 350.89984130859375 136.61000061035156 M 344.2198181152344 136.61000061035156 C 344.2198181152344 137.72999572753906 344.44317626953125 138.5833282470703 344.88983154296875 139.1699981689453 C 345.33648681640625 139.7566680908203 345.9964904785156 140.0500030517578 346.8698425292969 140.0500030517578 C 347.73651123046875 140.0500030517578 348.396484375 139.7566680908203 348.8498229980469 139.1699981689453 C 349.2965087890625 138.58999633789062 349.51983642578125 137.73666381835938 349.51983642578125 136.61000061035156 C 349.51983642578125 135.49000549316406 349.2965087890625 134.64334106445312 348.8498229980469 134.07000732421875 C 348.396484375 133.49000549316406 347.7298278808594 133.1999969482422 346.8498229980469 133.1999969482422 C 345.983154296875 133.1999969482422 345.3265075683594 133.48333740234375 344.87982177734375 134.0500030517578 C 344.4398193359375 134.6233367919922 344.2198181152344 135.47666931152344 344.2198181152344 136.61000061035156 ZM 357.30340576171875 141.16000366210938 C 356.7300720214844 141.16000366210938 356.2100830078125 141.05332946777344 355.743408203125 140.83999633789062 C 355.27008056640625 140.63333129882812 354.8734130859375 140.30999755859375 354.55340576171875 139.8699951171875 L 354.45343017578125 139.8699951171875 C 354.52008056640625 140.38333129882812 354.55340576171875 140.8699951171875 354.55340576171875 141.3300018310547 L 354.55340576171875 144.94000244140625 L 353.2234191894531 144.94000244140625 L 353.2234191894531 132.22999572753906 L 354.30340576171875 132.22999572753906 L 354.4834289550781 133.42999267578125 L 354.55340576171875 133.42999267578125 C 354.8934020996094 132.9499969482422 355.2900695800781 132.60333251953125 355.743408203125 132.38999938964844 C 356.1967468261719 132.17666625976562 356.71673583984375 132.07000732421875 357.30340576171875 132.07000732421875 C 358.4634094238281 132.07000732421875 359.3600769042969 132.46665954589844 359.993408203125 133.25999450683594 C 360.6267395019531 134.05332946777344 360.94342041015625 135.1699981689453 360.94342041015625 136.61000061035156 C 360.94342041015625 138.0500030517578 360.6234130859375 139.1666717529297 359.9834289550781 139.9600067138672 C 359.3367614746094 140.75999450683594 358.44342041015625 141.16000366210938 357.30340576171875 141.16000366210938 M 357.1134033203125 133.1999969482422 C 356.2134094238281 133.1999969482422 355.56341552734375 133.44667053222656 355.1634216308594 133.94000244140625 C 354.763427734375 134.44000244140625 354.5600891113281 135.22999572753906 354.55340576171875 136.30999755859375 L 354.55340576171875 136.61000061035156 C 354.55340576171875 137.8433380126953 354.7567443847656 138.72332763671875 355.1634216308594 139.25 C 355.5767517089844 139.78334045410156 356.23675537109375 140.0500030517578 357.1434020996094 140.0500030517578 C 357.9034118652344 140.0500030517578 358.4967346191406 139.7433319091797 358.92340087890625 139.1300048828125 C 359.35009765625 138.51666259765625 359.56341552734375 137.6699981689453 359.56341552734375 136.58999633789062 C 359.56341552734375 135.49667358398438 359.35009765625 134.6566619873047 358.92340087890625 134.07000732421875 C 358.4967346191406 133.49000549316406 357.8934020996094 133.1999969482422 357.1134033203125 133.1999969482422 ZM 374.4409484863281 141 L 374.4409484863281 135.2899932861328 C 374.4409484863281 134.59666442871094 374.29095458984375 134.07333374023438 373.990966796875 133.72000122070312 C 373.6909484863281 133.3733367919922 373.2276306152344 133.1999969482422 372.6009521484375 133.1999969482422 C 371.7742919921875 133.1999969482422 371.16094970703125 133.43666076660156 370.7609558105469 133.91000366210938 C 370.36761474609375 134.38333129882812 370.17095947265625 135.1133270263672 370.17095947265625 136.10000610351562 L 370.17095947265625 141 L 368.8409423828125 141 L 368.8409423828125 135.2899932861328 C 368.8409423828125 134.59666442871094 368.69427490234375 134.07333374023438 368.40093994140625 133.72000122070312 C 368.1009521484375 133.3733367919922 367.63427734375 133.1999969482422 367.0009460449219 133.1999969482422 C 366.1676330566406 133.1999969482422 365.5576171875 133.4499969482422 365.17095947265625 133.9499969482422 C 364.7842712402344 134.44332885742188 364.5909423828125 135.25999450683594 364.5909423828125 136.39999389648438 L 364.5909423828125 141 L 363.2609558105469 141 L 363.2609558105469 132.22999572753906 L 364.3409423828125 132.22999572753906 L 364.55096435546875 133.42999267578125 L 364.6209411621094 133.42999267578125 C 364.8742980957031 133.00332641601562 365.2276306152344 132.6699981689453 365.6809387207031 132.42999267578125 C 366.13427734375 132.19000244140625 366.644287109375 132.07000732421875 367.2109375 132.07000732421875 C 368.58428955078125 132.07000732421875 369.48095703125 132.56666564941406 369.90093994140625 133.55999755859375 L 369.9609375 133.55999755859375 C 370.2276306152344 133.10000610351562 370.60760498046875 132.73666381835938 371.1009521484375 132.47000122070312 C 371.6009521484375 132.20333862304688 372.1676330566406 132.07000732421875 372.80096435546875 132.07000732421875 C 373.7942810058594 132.07000732421875 374.5376281738281 132.32333374023438 375.03094482421875 132.8300018310547 C 375.5242919921875 133.3433380126953 375.7709655761719 134.16000366210938 375.7709655761719 135.27999877929688 L 375.7709655761719 141 L 374.4409484863281 141 ZM 382.19720458984375 141.16000366210938 C 380.9039001464844 141.16000366210938 379.88055419921875 140.76666259765625 379.1272277832031 139.97999572753906 C 378.38055419921875 139.18666076660156 378.0072326660156 138.08999633789062 378.0072326660156 136.69000244140625 C 378.0072326660156 135.27667236328125 378.3538818359375 134.15333557128906 379.0472106933594 133.32000732421875 C 379.7472229003906 132.48666381835938 380.68389892578125 132.07000732421875 381.8572082519531 132.07000732421875 C 382.95721435546875 132.07000732421875 383.82720947265625 132.42999267578125 384.46722412109375 133.14999389648438 C 385.1072082519531 133.8766632080078 385.4272155761719 134.8300018310547 385.4272155761719 136.00999450683594 L 385.4272155761719 136.85000610351562 L 379.38720703125 136.85000610351562 C 379.41387939453125 137.88333129882812 379.67388916015625 138.6666717529297 380.1672058105469 139.1999969482422 C 380.6605529785156 139.73333740234375 381.3538818359375 140 382.2472229003906 140 C 383.1938781738281 140 384.1272277832031 139.80332946777344 385.0472106933594 139.41000366210938 L 385.0472106933594 140.58999633789062 C 384.58056640625 140.79666137695312 384.13720703125 140.94332885742188 383.71722412109375 141.02999877929688 C 383.2972106933594 141.11666870117188 382.7905578613281 141.16000366210938 382.19720458984375 141.16000366210938 M 381.83721923828125 133.17999267578125 C 381.13720703125 133.17999267578125 380.57720947265625 133.41000366210938 380.1572265625 133.8699951171875 C 379.7372131347656 134.3300018310547 379.49053955078125 134.9633331298828 379.4172058105469 135.77000427246094 L 383.9972229003906 135.77000427246094 C 383.9972229003906 134.93666076660156 383.810546875 134.29666137695312 383.4372253417969 133.85000610351562 C 383.0638732910156 133.40333557128906 382.5305480957031 133.17999267578125 381.83721923828125 133.17999267578125 ZM 393.68695068359375 141 L 393.68695068359375 135.3300018310547 C 393.68695068359375 134.61000061035156 393.52362060546875 134.07666015625 393.19696044921875 133.72999572753906 C 392.8702697753906 133.3766632080078 392.36029052734375 133.1999969482422 391.6669616699219 133.1999969482422 C 390.75360107421875 133.1999969482422 390.0836181640625 133.44667053222656 389.6569519042969 133.94000244140625 C 389.23028564453125 134.44000244140625 389.0169372558594 135.25999450683594 389.0169372558594 136.39999389648438 L 389.0169372558594 141 L 387.68695068359375 141 L 387.68695068359375 132.22999572753906 L 388.7669372558594 132.22999572753906 L 388.9769592285156 133.42999267578125 L 389.04693603515625 133.42999267578125 C 389.3202819824219 132.99667358398438 389.7002868652344 132.663330078125 390.18695068359375 132.42999267578125 C 390.6802673339844 132.19000244140625 391.2269592285156 132.07000732421875 391.8269348144531 132.07000732421875 C 392.8869323730469 132.07000732421875 393.6836242675781 132.32333374023438 394.2169494628906 132.8300018310547 C 394.7502746582031 133.3433380126953 395.0169372558594 134.16000366210938 395.0169372558594 135.27999877929688 L 395.0169372558594 141 L 393.68695068359375 141 ZM 400.57049560546875 140.05999755859375 C 400.8038330078125 140.05999755859375 401.030517578125 140.0433349609375 401.2505187988281 140.00999450683594 C 401.47052001953125 139.97666931152344 401.6438293457031 139.94000244140625 401.7705078125 139.89999389648438 L 401.7705078125 140.9199981689453 C 401.6304931640625 140.98666381835938 401.4205017089844 141.0433349609375 401.1405029296875 141.08999633789062 C 400.8605041503906 141.1366729736328 400.607177734375 141.16000366210938 400.3804931640625 141.16000366210938 C 398.6805114746094 141.16000366210938 397.83050537109375 140.26666259765625 397.83050537109375 138.47999572753906 L 397.83050537109375 133.25999450683594 L 396.58050537109375 133.25999450683594 L 396.58050537109375 132.6199951171875 L 397.83050537109375 132.07000732421875 L 398.3905029296875 130.1999969482422 L 399.1604919433594 130.1999969482422 L 399.1604919433594 132.22999572753906 L 401.71051025390625 132.22999572753906 L 401.71051025390625 133.25999450683594 L 399.1604919433594 133.25999450683594 L 399.1604919433594 138.4199981689453 C 399.1604919433594 138.95333862304688 399.28717041015625 139.36000061035156 399.5404968261719 139.63999938964844 C 399.7938537597656 139.9199981689453 400.1371765136719 140.05999755859375 400.57049560546875 140.05999755859375 Z" transform="matrix(1.115971565246582, 0, 0, 1.115971565246582, -69.38761138916016, -26.88713836669922)" style="fill: rgb(138, 186, 139); white-space: pre; color: rgb(138, 186, 139); stroke: rgb(0, 0, 0); stroke-width: 0; stroke-opacity: 1; fill-opacity: 1; -webkit-text-stroke: 0px rgb(0, 0, 0);"/></g></g></svg>